<?xml version="1.0" encoding="utf-8"?>
<!-- Generator: Adobe Illustrator 28.2.0, SVG Export Plug-In . SVG Version: 6.00 Build 0)  -->
<svg version="1.1" id="レイヤー_1" xmlns="http://www.w3.org/2000/svg" xmlns:xlink="http://www.w3.org/1999/xlink" x="0px"
	 y="0px" viewBox="0 0 778 1030" style="enable-background:new 0 0 778 1030;" xml:space="preserve">
<style type="text/css">
	.st0{display:none;}
	.st1{fill:#335496;}
	.st2{enable-background:new    ;}
	.st3{opacity:0.5;fill:#DEFF45;enable-background:new    ;}
</style>
<g id="レイヤー_1_00000053535013568008800870000010112509218518781835_" class="st0">
</g>
<g id="レイヤー_2_00000138537099177451077320000002601857743493407391_">
	<g>
		<g>
			<path class="st1" d="M98.4,186.8c-1.3-5.5-4.4-9.3-9.3-11.5c-2.8-1.2-5.8-1.8-9.2-1.8c-6.4,0-11.8,2.4-15.9,7.3
				c-4.2,4.9-6.2,12.2-6.2,22c0,9.8,2.2,16.8,6.7,20.9c4.5,4.1,9.6,6.1,15.3,6.1c5.6,0,10.2-1.6,13.8-4.8c3.6-3.2,5.8-7.4,6.6-12.7
				H81.7v-13.4h33.4v43H104l-1.7-10c-3.2,3.8-6.1,6.5-8.7,8c-4.4,2.7-9.9,4.1-16.3,4.1c-10.6,0-19.3-3.7-26.1-11
				c-7.1-7.4-10.6-17.5-10.6-30.3c0-13,3.6-23.4,10.7-31.2s16.6-11.7,28.3-11.7c10.2,0,18.4,2.6,24.6,7.8
				c6.2,5.2,9.7,11.6,10.6,19.3L98.4,186.8L98.4,186.8z"/>
			<path class="st1" d="M151.8,161.8h18.9l28.4,80.2h-18.2l-5.3-16.5h-29.5l-5.4,16.5h-17.5L151.8,161.8z M150.7,211.6h20.5
				l-10.1-31.6L150.7,211.6z"/>
			<path class="st1" d="M207.4,161.8h16.5v33l31-33h21.6l-32.9,33l34.6,47.2h-21.5l-24.7-35l-8.1,8.2v26.8h-16.5V161.8z"/>
			<path class="st1" d="M287.5,161.8h17V211c0,5.5,0.6,9.5,2,12.1c2,4.5,6.4,6.7,13.2,6.7c6.8,0,11.1-2.2,13.2-6.7
				c1.3-2.5,2-6.6,2-12.1v-49.2h17V211c0,8.5-1.3,15.2-4,19.9c-4.9,8.7-14.3,13.1-28.2,13.1s-23.3-4.4-28.2-13.1
				c-2.6-4.8-4-11.4-4-19.9L287.5,161.8L287.5,161.8z"/>
			<path class="st1" d="M383.3,241.9h-16.6v-80.2h16.6V241.9z"/>
			<path class="st1" d="M398.6,161.8h17.6l31.8,55.9v-55.9h15.6v80.2h-16.7l-32.6-56.9v56.9h-15.6L398.6,161.8L398.6,161.8z"/>
		</g>
	</g>
	<g>
		<path class="st1" d="M41.3,50.8h16.5v33l31-33h21.7l-32.9,33l34.6,47.2H90.6L65.9,96l-8.1,8.2V131H41.3V50.8z"/>
		<path class="st1" d="M136.8,131h-16.6V50.8h16.6V131z"/>
		<path class="st1" d="M210.7,50.8V65h-24v66h-16.9V65h-24.1V50.8H210.7z"/>
		<path class="st1" d="M230,50.8h19l28.4,80.2h-18.2l-5.3-16.5h-29.5l-5.4,16.5h-17.5L230,50.8z M228.9,100.7h20.5l-10.1-31.6
			L228.9,100.7z"/>
		<path class="st1" d="M287.8,50.8h16.5v33l31-33h21.6l-32.9,33l34.6,47.2h-21.5l-24.7-35l-8.1,8.2V131h-16.5L287.8,50.8L287.8,50.8
			z"/>
		<path class="st1" d="M390.9,50.8h19l28.4,80.2h-18.2l-5.3-16.5h-29.5l-5.4,16.5h-17.5L390.9,50.8z M389.8,100.7h20.5l-10.1-31.6
			L389.8,100.7z"/>
		<path class="st1" d="M448.2,50.8h17.6l31.8,55.9V50.8h15.6V131h-16.8l-32.6-56.9V131h-15.6L448.2,50.8L448.2,50.8z"/>
		<path class="st1" d="M587.1,50.8V65h-24v66h-16.9V65h-24.1V50.8H587.1z"/>
		<path class="st1" d="M654.2,123.8c-6.1,6.2-14.8,9.4-26.3,9.4s-20.2-3.1-26.3-9.4c-8.1-7.7-12.2-18.7-12.2-33.1
			c0-14.7,4.1-25.7,12.2-33.1c6.1-6.2,14.8-9.3,26.3-9.3s20.2,3.1,26.3,9.3c8.1,7.4,12.1,18.4,12.1,33.1
			C666.3,105.2,662.3,116.2,654.2,123.8z M643.7,111.7c3.9-4.9,5.8-11.9,5.8-20.9c0-9-2-15.9-5.8-20.9c-3.9-4.9-9.2-7.4-15.8-7.4
			S616,65,612,69.9s-5.9,11.9-5.9,20.9s2,16,5.9,20.9c4,4.9,9.2,7.3,15.9,7.3C634.6,119,639.8,116.6,643.7,111.7z"/>
		<path class="st1" d="M674.7,50.8h17V100c0,5.5,0.7,9.5,2,12.1c2,4.5,6.4,6.7,13.2,6.7c6.8,0,11.2-2.2,13.2-6.7
			c1.3-2.5,2-6.6,2-12.1V50.8h17v49.3c0,8.5-1.3,15.2-4,19.9c-4.9,8.7-14.3,13.1-28.2,13.1s-23.3-4.4-28.2-13.1
			c-2.6-4.8-4-11.4-4-19.9L674.7,50.8L674.7,50.8z"/>
	</g>
	<g>
		<g>
			<g class="st2">
				<path class="st1" d="M60.4,295.9H38v-9.4h27.5v-7.1H44v-9.1h21.5v-8.2h10.2v8.2h21v9.1h-21v7.1h26.9v9.4H80.5
					c2.8,4.5,6.3,8.4,10.5,11.6c3.2,2.5,7.5,5.1,12.8,7.9l-6.5,9.1c-8.1-3.6-15.3-9.8-21.5-18.7v22.1H65.5v-22.7
					c-5.5,9.1-12.5,15.8-21,20.1l-6.8-9.6c4.9-1.9,9.4-4.7,13.6-8.5C55.3,303.7,58.3,299.9,60.4,295.9z"/>
				<path class="st1" d="M131,299.3h-20.4v-9.1h14.7c0-0.8-0.7-2.5-2-5.1c-1.1-2.3-2.2-4.1-3.1-5.4l6.5-2.3h-13v-9.1h23.8v-6.2h10.8
					v6.2h23.8v9.1h-12.2l6,2.6c-0.4,1.3-1.1,3.3-2.3,6c-0.9,2.1-1.8,3.5-2.6,4.3h14.2v9.1H155c2.3,3.6,4.9,6.6,7.9,9.1
					c4.5,3.8,8.9,6.7,13,8.8l-6.2,9.6c-5.3-2.3-9.6-5.3-13-9.1c-2.5-1.9-5.3-5.3-8.5-10.2v20.1h-10.8v-20.4c-1.7,3-4.2,6.4-7.4,10.2
					c-3.6,4-7.8,7.1-12.8,9.4l-7.1-9.1c4.3-1.3,8.5-4,12.5-7.9C126.9,305.8,129.6,302.3,131,299.3z M128.7,290.2h8.8v-12.8h-7.1
					c2.1,2.8,3.5,6.4,4.3,10.8L128.7,290.2z M155.6,277.5h-7.4v12.8h9.1l-6.5-3.1c0.9-0.9,2-2.6,3.1-4.8
					C154.9,280.2,155.4,278.6,155.6,277.5z"/>
				<path class="st1" d="M182,299c4-5.7,7.7-11.4,11.3-17.3h-7.4v-9.1h12.8l4.5-8.2l10.5,1.7l-4,6.5c4.9-0.4,10-0.9,15.3-1.4v9.1
					c-6.4,0.6-13.2,1-20.4,1.4l-2.8,4c7.9-3.6,13.9-2.5,17.9,3.4c4.2-1.7,8.2-3.2,12.2-4.5l3.7,8.8c-5.1,1.9-9.9,3.8-14.5,5.7
					l-0.3,10.2l-10.2-0.3l0.3-4.8c-2.3,1.1-3.8,2.1-4.5,2.8c-1.5,1.3-2.4,2.8-2.6,4.5c0,1.5,1.2,2.5,3.7,3.1c2.1,0.4,5,0.6,8.8,0.6
					c4.3,0,9.7-0.5,16.2-1.4l-1.1,9.9c-6.4,1.1-13.7,1.4-21.8,0.8c-4.2-0.4-7.5-1.2-9.9-2.5c-4-2.1-6-5.3-6-9.6
					c0-3.4,1.4-6.6,4.3-9.6c2.6-2.8,6.5-5.7,11.6-8.5c-0.6-1.1-1.7-1.7-3.4-1.7c-1.5,0.2-3.4,0.8-5.7,2c-3.2,1.7-6.9,5-11.1,9.9
					L182,299z"/>
				<path class="st1" d="M251.4,276.9l8.5,4.8c-3,6.2-7.1,10.8-12.2,13.6l-6.5-8.2C246.5,284.3,249.9,280.9,251.4,276.9z
					 M260.7,298.2l-6.2-5.4c2.8-2.1,4.9-4.6,6.2-7.7c0.9-2.5,1.3-5.6,1.1-9.4h-19.3v-9.1H269v-4.8h10.8v4.8h27.2v9.1h-18.1v13.3
					c0,1.9-0.6,3.5-1.7,4.8c-1.1,1.5-2.6,2.3-4.5,2.3h-6.8l-2.3,2.5h19.3l0.9-0.6l6.2,6.5c-1.1,1.3-3.1,3.1-6,5.4
					c-3,2.5-5.3,4.1-6.8,4.8c4.3,1.9,11.1,2.8,20.4,2.8l-2.8,10.2c-11.3-0.2-21-2.4-28.9-6.5c-3.6,1.9-8.1,3.5-13.6,4.8
					c-5.7,1.3-11.1,2-16.2,2l-4-9.4c3.8,0,7.8-0.3,12.2-0.9c4.5-0.8,7.7-1.6,9.6-2.5c-2.3-1.3-4.3-2.7-6-4.2c-0.6,0.4-2,1-4.3,2
					c-2.3,1.1-4,1.8-5.1,2l-5.1-8.2c3.2-0.8,6.8-2.2,10.8-4.2C257.1,301.2,259.2,299.7,260.7,298.2z M275.5,310.9
					c0.9,0,2.4-0.7,4.3-2c1.7-1.1,2.8-2,3.4-2.5h-15C270.4,308.7,272.8,310.2,275.5,310.9z M278.9,275.8h-6.5
					c-0.6,9.6-1.8,15.8-3.7,18.4l5.7,1.1l-2.3-9.1h4.5c1.9,0.4,2.6-0.5,2.3-2.5V275.8z M289.9,282.9l8.2-5.7
					c1.3,0.9,3.1,2.7,5.4,5.4c2.1,2.5,3.6,4.5,4.5,6.2l-8.2,6.5c-0.8-1.9-2.2-4.1-4.2-6.5C293.3,285.8,291.4,283.8,289.9,282.9z"/>
				<path class="st1" d="M314,319.4c8.5-10,17-19.9,25.5-29.8c-5.5,1.5-12.3,2.7-20.4,3.7l-1.7-10.5c13.4-0.8,25.8-2.8,37.1-6.2
					l5.1,7.7c-4.9,4.3-9.4,8.8-13.6,13.3c2.6,0,4.3,0.9,5.1,2.8c0.6,1.5,0.7,3.8,0.3,6.8c-0.8,5.7,0.8,8.4,4.5,8.2
					c3-0.2,7.6-1,13.6-2.6v10.2c-8.9,1.9-15.6,2.6-20.1,2c-4.5-0.8-6.9-3.5-7.1-8.2l-0.3-7.9c-0.2-2.3-1.1-3.2-2.8-2.8
					c-1.3,0.2-2.6,1-4,2.5c-4.2,4.9-8.7,10.5-13.6,16.7L314,319.4z M325.6,273.5l1.4-9.6c7.6,0.9,15.7,1.6,24.4,2l-0.9,10.2
					C340.4,275.3,332.1,274.5,325.6,273.5z"/>
				<path class="st1" d="M373.8,303.8c10-8.9,19.7-17.9,29.2-27.2c-7,1.1-13.9,2-20.7,2.5l-2-9.9c14.5-1.1,25.8-2.6,33.7-4.5
					l5.7,7.9c-5.5,5.5-10.1,10.1-13.9,13.9c4.5-0.8,8.7-0.5,12.5,0.8c4.2,1.3,7.3,3.9,9.4,7.7c2.6,4.9,2.9,10,0.9,15.3
					c-1.9,5.1-5.2,9-9.9,11.6c-4,2.3-8.6,3.5-13.9,3.7c-5.3,0.2-9.8-0.9-13.6-3.1c-3.8-2.1-5.4-5.2-4.8-9.4c0.6-4.2,2.8-7,6.8-8.5
					c4.5-1.7,8.9-2,13-0.9c4.5,1.1,7.7,3.8,9.4,7.9c2.5-1.7,3.9-4,4.2-6.8c0.4-2.8-0.5-5.3-2.5-7.4c-2.1-2.1-5.9-2.9-11.3-2.6
					c-3.6,0.4-6.8,1.3-9.6,2.8c-6,3.4-11.3,7.9-15.9,13.6L373.8,303.8z M407.2,316c-0.6-2.6-2-4.2-4.3-4.8c-1.7-0.4-3.3-0.3-4.8,0.3
					c-1.5,0.6-2.1,1.5-1.7,2.8c0.4,1.1,1.7,1.9,4,2.3C403.5,317.2,405.7,317,407.2,316z"/>
				<path class="st1" d="M435.9,320.6c6.2-10.6,11.1-21.7,14.7-33.4c-4.2,0.6-8.3,0.8-12.5,0.8v-9.4c5.1-0.2,10-0.6,14.7-1.1
					c1.1-4.2,2-8.5,2.5-13l10.5,1.7c-0.6,3.4-1.2,6.7-2,9.9c5.3-0.8,9.3-1.4,11.9-2l1.1,9.6c-4.7,1.1-10,2-15.9,2.5
					c-3.8,14.2-9.1,27.3-15.9,39.4L435.9,320.6z M471.8,306.4c-1.9,2.8-2.2,4.8-0.8,6c1.5,1.3,5.2,1.8,11.1,1.4
					c4.9-0.4,9-0.9,12.2-1.4l0.9,9.4c-10.8,1.9-19.3,2.3-25.5,1.1c-4.9-0.9-7.9-3.3-9.1-7.1c-1.1-3.8-0.4-7.8,2.3-12.2L471.8,306.4z
					 M469.3,288.8c7.9,0,15.9-0.2,23.8-0.6l0.3,9.4c-8.1,0.2-16.2,0.3-24.1,0.3V288.8z"/>
				<path class="st1" d="M510.9,286c-1.5-4.2-2.9-8.5-4.2-13l9.1-4.3c0.6,2.5,1.6,6.2,3.1,11.3c4.5-2.3,8.8-3.7,12.8-4.3
					c0.2-2.6,0.3-6.6,0.3-11.9l10.5,1.7l-1.1,9.9c8.9,0.9,14.9,4.8,18.1,11.6c2.3,4.5,2.8,9.4,1.7,14.7c-1.3,6.2-4.2,11.1-8.5,14.7
					c-5.1,4.3-10.6,7.2-16.4,8.5l-4-9.4c10.6-2.3,16.7-6.9,18.4-13.9c1.1-4.5,0.7-8.4-1.4-11.6c-2.1-3.4-5.3-5.1-9.6-5.1
					c-2.3,9.3-4.9,16-7.9,20.1c0.6,1.1,1.6,2.6,3.1,4.5l-7.9,6.8l-2.3-3.4c-6.2,5.1-11.5,7.1-15.9,6c-3.6-0.8-5.9-3.1-6.8-7.1
					c-0.8-3.2-0.7-6.7,0.3-10.5C503.5,295.7,506.4,290.5,510.9,286z M519.7,305.5c-2.1-3.2-3.8-6.5-5.1-9.9c-2.6,3.6-4,7.3-4,11.1
					c0,2.3,0.9,3.3,2.6,3.1C514.9,309.6,517.1,308.2,519.7,305.5z M522.3,288.8c1.3,3.2,2.5,5.8,3.7,7.7c2.1-3.4,3.5-7.1,4.3-11.1
					C527.2,286,524.6,287.1,522.3,288.8z"/>
				<path class="st1" d="M573,261.9l9.9,2c-4,14.9-5.2,28.1-3.7,39.7c0.9-1.9,2-3.7,3.1-5.4l5.7,6.2c-2.8,4.5-5.2,10.8-7.1,18.7
					l-8.5,0.9C567.5,302.8,567.7,282.1,573,261.9z M592,298.7l10.8,2c-0.4,1.1-0.8,2.5-1.4,4c-0.6,1.9-0.4,3.2,0.6,4
					c1.1,1.1,5.1,1.5,11.9,1.1c5.9-0.4,10.7-0.8,14.5-1.1l0.3,10.8c-6.8,0.8-12.9,1.1-18.4,1.1c-8.7,0-14.4-1.2-17-3.7
					c-2.5-2.3-3.5-5.2-3.1-8.8C590.2,305.8,590.9,302.7,592,298.7z M593.7,279.2v-9.9c11-0.4,22-0.9,33.2-1.7l0.3,10.2
					C616,278.5,604.8,279,593.7,279.2z"/>
				<path class="st1" d="M635.3,313.2l6.5-5.7l13.3,14.2l-7.9,6L635.3,313.2z"/>
			</g>
			<g class="st2">
				<path class="st1" d="M59,375.6H38.3v-8.8h27.2v-11.9h10.8v11.9h27.2v8.8H82.8c1.3,4.7,4.2,9.6,8.5,14.7
					c3.8,4.3,8.2,8.3,13.3,11.9l-6,10.2c-5.3-3.8-9-7.4-11.1-10.8v5.7H76.3v13.3H65.5v-13.3H54.5v-5.1c-0.8,1.3-2.5,3.2-5.1,5.7
					c-2.5,2.3-4.5,3.9-6.2,4.8l-6.2-9.9c4.3-2.3,8.7-6,13-11.3C54.5,386,57.5,380.7,59,375.6z M57.3,398.5h8.2v-12.8
					C62.9,391.5,60.1,395.7,57.3,398.5z M76.3,398.5h8.8c-3-3-6-7.6-8.8-13.6V398.5z"/>
				<path class="st1" d="M110.3,372.2c2.6-2.3,5.3-5.2,7.9-8.8c2.6-3.4,4.4-6.5,5.4-9.4l9.9,1.4l-2,4h40.2v9.1h-45.3l-1.7,2.3h43.1
					v8.2h-44.5v-6.5c-1.7,2.6-3.7,4.9-6,6.8L110.3,372.2z M111.1,412.4c6.6-1.9,12.2-4.4,16.7-7.7c-3-2.3-6.3-4.3-9.9-6.2l7.1-6.8
					c3.6,1.5,7.2,3.7,10.8,6.5c2.5-2.6,4.8-5.4,7.1-8.2h-29.8v-8.8h51l-0.3,6.5v11.9c0,2.6,0.1,4.3,0.3,5.1c0.4,1.5,1,2.3,2,2.3
					c1.1,0,2.2-1.7,3.1-5.1l0.6-2l7.1,8.2l-3.1,7.1c-1.5,3.6-4.1,5.3-7.7,5.1c-3.4-0.2-6.1-1.9-8.2-5.1c-1.9-3-3-6.9-3.4-11.6
					c-0.4-5.5-0.6-10-0.6-13.6h-7.7l6,3.7c-3,4.2-5.9,7.7-8.5,10.5c3.6,2.5,7.2,5.1,10.8,7.9l-8.2,6.8c-2.8-2.3-6.2-4.9-10.2-7.9
					c-4.9,4-11.1,7.4-18.4,10.2L111.1,412.4z"/>
				<path class="st1" d="M220.2,417.8l-5.1-9.1c7.2-2.5,12-5.5,14.5-9.1c4.7-7,5.6-13.7,2.6-20.1c-2.8-6.2-7.9-9.3-15.3-9.1
					c0,19.6-4.2,33.1-12.5,40.2c-3.4,2.8-6.9,3.6-10.5,2.3c-3.8-1.5-6.6-4.3-8.5-8.2c-3.8-7.6-3.9-15.6-0.3-24.1
					c3.6-8.1,9.4-13.8,17.6-17c5.9-2.3,11.6-3,17.3-2.3c6,0.6,11.1,2.8,15.3,6.8c4.9,4.5,7.7,10.2,8.2,17c0.6,7.4-1.1,13.9-5.1,19.6
					C234.2,410.6,228.2,415,220.2,417.8z M207.2,371.6c-8.5,3-13.2,9.2-14.2,18.4c-0.4,2.6-0.1,5.3,0.9,7.9c1.1,3.2,2.6,4.3,4.5,3.4
					c2.5-1.1,4.5-4.2,6.2-9.4S207.2,380.1,207.2,371.6z"/>
				<path class="st1" d="M295.6,373h-10.8c-1.3-4.7-4.6-7-9.9-6.8c-4,0.2-7.1,1.7-9.4,4.5c-2.3,2.8-3.3,6.6-3.1,11.3
					c8.3-6.4,16.5-7.4,24.7-2.8c3.6,2.1,6.2,5,7.9,8.8c1.5,3.4,2,7.1,1.4,11.1c-0.6,3.8-2.1,7.2-4.5,10.2c-2.6,3-6,5.1-9.9,6.2
					c-5.1,1.5-10.2,1.4-15.3-0.3c-5.7-1.9-9.7-5.1-12.2-9.6c-2.6-4.9-3.9-11.2-3.7-19c0-8.1,1.5-14.5,4.5-19
					c4.5-7,11.2-10.5,20.1-10.5c4.9,0,9.1,1.2,12.5,3.7C292.1,363.9,294.6,367.9,295.6,373z M274.6,407.6c5.1,0,8.6-2.2,10.5-6.5
					c1.9-4.3,1.1-8.3-2.3-11.9c-2.8-2.8-6.5-3.5-11.1-2c-4.2,1.5-7.2,4.1-9.1,7.7c-0.2,3.2,0.9,6,3.1,8.5
					C268.3,406.2,271.2,407.6,274.6,407.6z"/>
				<path class="st1" d="M301.8,394.3c7-6,12.4-14.3,16.2-24.7l9.4,3.1c-0.9,2.5-2.2,4.9-3.7,7.4h27.8v9.1H339
					c-1.1,14-7.1,23.6-17.9,28.9l-7.9-6.5c4.5-1.9,8.2-4.8,11.1-8.8c2.8-4.2,4.3-8.7,4.5-13.6h-9.6c-3,4.3-6.1,8-9.4,11.1
					L301.8,394.3z"/>
				<path class="st1" d="M369.3,384.7v-27.8h42.5V411c0,6.2-3,9.4-9.1,9.4h-8.8l-3.4-10.2h7.7c1.5,0,2.5-0.3,2.8-0.8
					c0.4-0.4,0.6-1.4,0.6-3.1v-7.1h-23c-0.6,4-1.9,7.6-4,10.8c-2.5,4-5.5,7.5-9.1,10.5l-7.7-9.6c4.2-3.2,7.2-6.9,9.1-11.1
					C368.5,396.5,369.3,391.5,369.3,384.7z M378.9,373.3h22.7V366h-22.7V373.3z M378.9,390h22.7v-7.7h-22.7V390z"/>
				<path class="st1" d="M428.5,391.7c4-5.7,7.7-11.4,11.3-17.3h-7.4v-9.1h12.8l4.5-8.2l10.5,1.7l-4,6.5c4.9-0.4,10-0.9,15.3-1.4
					v9.1c-6.4,0.6-13.2,1-20.4,1.4l-2.8,4c7.9-3.6,13.9-2.5,17.9,3.4c4.2-1.7,8.2-3.2,12.2-4.5l3.7,8.8c-5.1,1.9-9.9,3.8-14.5,5.7
					l-0.3,10.2l-10.2-0.3l0.3-4.8c-2.3,1.1-3.8,2.1-4.5,2.8c-1.5,1.3-2.4,2.8-2.6,4.5c0,1.5,1.2,2.5,3.7,3.1c2.1,0.4,5,0.6,8.8,0.6
					c4.3,0,9.7-0.5,16.2-1.4l-1.1,9.9c-6.4,1.1-13.7,1.4-21.8,0.8c-4.2-0.4-7.5-1.2-9.9-2.5c-4-2.1-6-5.3-6-9.6
					c0-3.4,1.4-6.6,4.2-9.6c2.6-2.8,6.5-5.7,11.6-8.5c-0.6-1.1-1.7-1.7-3.4-1.7c-1.5,0.2-3.4,0.8-5.7,2c-3.2,1.7-6.9,5-11.1,9.9
					L428.5,391.7z"/>
				<path class="st1" d="M517.8,411h7.9l28.1-0.9l-2,9.6H520c-8.7,0-15.2-1.8-19.6-5.4l-7.9,5.7l-5.1-8.5l6.5-4.8v-15h-5.7v-8.5
					h15.6v14.5c0,2.5,0,4.2,0,5.1c0.2,1.3,0.5,2.5,0.9,3.4c0.8,1.3,2.5,2.5,5.1,3.4C512.5,410.5,515.1,411,517.8,411z M499,374.2
					c-2.8-4.7-6.4-8.3-10.8-10.8l7.1-6.8c2.6,1.7,6,4.8,10.2,9.4L499,374.2z M544.1,407.9h-5.4l-0.8-3.7h-10.5v2.8h-8.5v-18.7h20.7
					v10.5c1.7,0.2,2.5-0.9,2.5-3.1v-9.1h-25.8v21h-9.6v-29.2h4.8v-21.3h34.9v21.3h4.8v22.4C551.2,405.5,548.8,407.9,544.1,407.9z
					 M524.6,367.4h12.2v-2.6h-15.3v13.6h3.1V367.4z M527.4,397.7h4v-2.8h-4V397.7z M532.5,378.4h4.3v-4.8h-4.3V378.4z"/>
				<path class="st1" d="M577.8,392c-1.9,1.5-3.2,2.6-4,3.4c-1.5,1.7-2.1,3.2-1.7,4.5c0.4,1.7,2.1,2.9,5.1,3.7
					c2.5,0.6,5.2,0.9,8.2,0.9c6.8,0,15.7-1.2,26.6-3.7l2,10.2c-15.5,3.4-28,4.4-37.4,3.1c-8.9-1.1-14.1-4.4-15.6-9.9
					c-1.7-6.4,1.5-12.7,9.6-18.7L577.8,392z M566.2,361.1c15.7,0.4,28.1-0.1,37.4-1.4l5.7,9.1c-6,2.5-12.8,6.7-20.4,12.8l-6.5-7.1
					c1.1-0.8,3.6-2.4,7.4-4.8c-6.6,0.8-14.4,1.1-23.2,1.1L566.2,361.1z M605.9,360.6l4.8-2.6l4.5,7.9l-4.8,2.5L605.9,360.6z
					 M612.1,357.7l4.8-2.5l4,7.7l-4.8,2.6L612.1,357.7z"/>
				<path class="st1" d="M623.2,381.3c5.7-0.6,11.3-1.2,17-2l13.6-11.6c-6.2,0.8-12.4,1.4-18.4,2l-1.4-9.9c10.6-0.6,22-1.6,34.3-3.1
					l3.4,8.5l-14.7,12.5c8.1-1.1,16.2-2.4,24.1-3.7l1.4,9.6l-9.6,1.1c-4.2,0.6-7.9,2.1-11.3,4.5c-3.4,2.6-5.7,5.8-6.8,9.4
					c-1.5,5.1,0.2,8.3,5.1,9.6c2.8,0.8,7.4,0.8,13.6,0.3l-1.4,9.6c-7.6,0.4-12.7,0.4-15.3,0c-5.1-0.8-8.9-3.1-11.3-7.1
					c-2.1-3.2-2.6-7.2-1.7-11.9c0.9-4.5,3-8.3,6.2-11.3l-24.9,3.7L623.2,381.3z"/>
				<path class="st1" d="M687.2,380.4c10.4-4.3,18.6-7,24.7-7.9c10-1.5,17.1-0.2,21.3,4c3.6,3.8,5.3,8.4,5.1,13.9
					c-0.2,5.1-1.9,9.7-5.1,13.9c-5.5,7.2-14.6,12.1-27.5,14.7l-4.3-9.1c4.3-0.6,8.6-1.7,12.8-3.4c4.7-2.1,8.1-4.3,10.2-6.8
					c2.5-2.8,3.7-6.2,3.7-10.2c0-4.2-1.9-6.7-5.7-7.7c-7-1.5-17.4,1.2-31.2,8.2L687.2,380.4z M700.8,366l1.4-9.4
					c7,1.5,15.3,2.7,24.9,3.7l-1.4,9.1C717.2,368.8,708.9,367.7,700.8,366z"/>
			</g>
		</g>
		<rect x="36.7" y="322.1" class="st3" width="615.1" height="18.7"/>
		<rect x="36.7" y="416.7" class="st3" width="703.8" height="16.3"/>
	</g>
	<g>
		<g>
			<path class="st1" d="M94.6,546.8l5.7,1.3c-0.3,4.3-1,8-2.2,10.9h1.1c1.2,0,1.7-0.6,1.7-1.7v-11.5h-6.5v-15.4h20v15.4h-6.1V562
				c0,3-1.7,4.6-5,4.6h-3.7l-2-6.7l-0.9,2.4l-5.4-3C93.2,555.2,94.3,551,94.6,546.8z M92,527.9v-7.2h9.1v-4.3h7.4v4.3h8.7v7.2H92z
				 M101.7,539.2h5.2v-2.6h-5.2V539.2z M122.6,536.6h-6.5v-7h6.9l0.4-13.2l7.2,0.2l-0.2,13h11.7v7h-12.4l-0.2,2.4h4.4v19.1
				c0,0.7,0.3,1.1,0.9,1.1h0.9c0.4-0.1,0.7-1.7,0.9-4.6l0.2-4.3l5.9,2.2l-0.4,5.9c-0.3,3.5-0.9,5.7-1.7,6.5c-0.7,1-2,1.5-3.9,1.5
				h-3.9c-4.1,0-6.1-1.6-6.1-4.8v-9.3c-2,6.2-5.1,11-9.1,14.3l-6.1-5.7c2.5-2,4.1-3.9,5-5.7l-5.9,1.5l-1.7-8.5l5.7-1.3l2.2,7.8
				c1.4-2,2.8-4.7,3.9-8C121.7,542.9,122.4,539.5,122.6,536.6z M135.4,529.2c-0.3-1.2-0.9-2.5-1.7-4.1c-1.2-2.2-2.1-3.6-2.8-4.3
				l5.6-3c2,2,3.7,4.8,5,8.3L135.4,529.2z"/>
			<path class="st1" d="M192.2,523.8v7.4h8v6.1h-7.8c0,2.8,0.1,4.5,0.2,5.2c0.6-1.3,1-2.5,1.3-3.7l6.1,3.5c-0.7,3-2.7,6.8-5.9,11.3
				c0,0.6,0.1,1.1,0.2,1.5c0.3,0.4,0.6,0.6,0.9,0.4c0.1,0,0.4-0.5,0.9-1.5c0.3-0.7,0.6-1.5,0.9-2.2l3.9,6.7
				c-0.4,2.3-1.5,4.4-3.3,6.3c-1.4,1.6-3,2.1-4.6,1.5c-0.9-0.2-1.7-0.9-2.6-2.2c-0.7-1.2-1.3-2.5-1.7-3.9c-0.4,0.7-1.4,1.7-2.8,3
				c-1.4,1.5-2.6,2.4-3.5,2.8l-5.6-5l1.5-1.1h-3.5v1.5H168V539h16.1v15.9c0.6-0.3,1.3-1.1,2.2-2.4c-0.3-2.3-0.6-7.4-1.1-15.2h-18.9
				v-6.1h3.5l-0.9-3.5h-1.5V526h-1.7V567h-6.3v-9.1l-8.3,2.8l-1.7-6.7l2-0.4V526h-1.5v-7h18v2.8h5.4v-5.2h7.2v5.2h4.8v-5h6.9v5.4
				l4.6-2.4c0.6,0.7,1.3,2,2.2,3.7c0.7,1.7,1.2,3,1.5,3.9l-5.6,2.2C194.2,527.2,193.3,525.2,192.2,523.8z M157.4,529.9h2V526h-2
				V529.9z M157.4,540.3h2v-4.6h-2V540.3z M157.4,551.8l2-0.7v-5h-2V551.8z M174.8,546.8h2.8v-2.4h-2.8V546.8z M174.8,554.4h2.8V552
				h-2.8V554.4z M175.2,527.7l0.6,3.5h1.5l0.6-3.5H175.2z M183,531.2h2.2v-3.5h-1.1L183,531.2z"/>
			<path class="st1" d="M207.2,544.9c3-4.3,5.9-8.8,8.7-13.2h-5.6v-7h9.8l3.5-6.3l8,1.3l-3,5c3.8-0.3,7.7-0.7,11.7-1.1v7
				c-4.9,0.4-10.1,0.8-15.6,1.1l-2.2,3c6.1-2.8,10.6-1.9,13.7,2.6c3.2-1.3,6.3-2.5,9.3-3.5l2.8,6.7c-3.9,1.5-7.6,2.9-11.1,4.3
				l-0.2,7.8l-7.8-0.2l0.2-3.7c-1.7,0.9-2.9,1.6-3.5,2.2c-1.2,1-1.8,2.2-2,3.5c0,1.2,0.9,2,2.8,2.4c1.6,0.3,3.8,0.4,6.7,0.4
				c3.3,0,7.5-0.4,12.4-1.1l-0.9,7.6c-4.9,0.9-10.5,1.1-16.7,0.7c-3.2-0.3-5.7-0.9-7.6-2c-3-1.6-4.6-4-4.6-7.4
				c0-2.6,1.1-5.1,3.3-7.4c2-2.2,5-4.3,8.9-6.5c-0.4-0.9-1.3-1.3-2.6-1.3c-1.2,0.2-2.6,0.7-4.3,1.5c-2.5,1.3-5.3,3.8-8.5,7.6
				L207.2,544.9z"/>
			<path class="st1" d="M256.5,566.6v-48.4h39.1v48.2H288v-2.2h-23.9v2.4L256.5,566.6L256.5,566.6z M264.1,530.8H288v-5.7h-23.9
				V530.8z M264.1,544H288v-6.3h-23.9V544z M264.1,557.2H288V551h-23.9V557.2z"/>
			<path class="st1" d="M308.6,567l-1.7-7.8h3.5c1.6,0,2.3-0.7,2.2-2.2v-7.4l-5.4,1.3l-1.1-7.4l6.5-1.3v-8.7h-6.1v-6.7h6.1v-10.4
				h7.8v10.4h4.6v6.7h-4.6v6.7l3.5-1.5l1.7,6.7l-5.2,2v13.7c0,3.9-1.7,5.9-5.2,5.9L308.6,567L308.6,567z M335.8,529.9h12.6
				c0.6,0.2,1.1-1.2,1.5-4.1l6.7,2c-0.4,3.2-1.1,5.4-2,6.7c-1,1.5-2.7,2.2-5,2.2h-17.8c-3.6,0-5.4-1.7-5.4-5.2v-15h7.4v3.9
				c5.9-0.4,12-1.5,18.2-3.3l3.5,6.3c-7,1.9-14.2,3-21.7,3.5v1.5C333.6,529.5,334.3,530,335.8,529.9z M327.3,567v-27.6h26.3V567
				h-7.4v-2.6h-11.3v2.6H327.3z M334.9,549h11.3v-3.5h-11.3V549z M334.9,558.1h11.3v-3.5h-11.3V558.1z"/>
			<path class="st1" d="M361,524.7c6.7-0.1,13.5-0.3,20.4-0.4l-0.2-6.5h8.5l-0.2,6.5h17.2v7.2l-17.4-0.2l0.2,5
				c2.8,3.3,3.6,7.7,2.6,13c-0.6,3-1.9,6-3.9,8.9c-2.3,3.2-5.1,5.8-8.5,7.8l-5.4-5.7c4.2-2.5,6.8-4.8,7.8-7c-2,1.2-4.1,1.4-6.3,0.7
				c-2.9-1-4.7-3.4-5.4-7.2c-0.6-3.3-0.2-6.4,1.1-9.1c2-3.9,5.5-5.4,10.4-4.6l-0.2-1.7c-7.2,0.3-14.1,0.6-20.6,0.9L361,524.7
				L361,524.7z M379.9,540.1c-1.9,0.3-2.8,1.6-2.6,3.9c0.1,2.3,1,3.5,2.6,3.7c1.2,0.2,2-0.2,2.6-1.1c0.4-0.7,0.6-1.7,0.6-2.8
				c0-1.2-0.3-2.1-0.9-2.8C381.7,540.2,380.9,539.9,379.9,540.1z"/>
			<path class="st1" d="M452.9,523.8v7.4h8v6.1h-7.8c0,2.8,0.1,4.5,0.2,5.2c0.6-1.3,1-2.5,1.3-3.7l6.1,3.5c-0.7,3-2.7,6.8-5.9,11.3
				c0,0.6,0.1,1.1,0.2,1.5c0.3,0.4,0.6,0.6,0.9,0.4c0.1,0,0.4-0.5,0.9-1.5c0.3-0.7,0.6-1.5,0.9-2.2l3.9,6.7
				c-0.4,2.3-1.5,4.4-3.3,6.3c-1.5,1.6-3,2.1-4.6,1.5c-0.9-0.2-1.7-0.9-2.6-2.2c-0.7-1.2-1.3-2.5-1.7-3.9c-0.4,0.7-1.4,1.7-2.8,3
				c-1.5,1.5-2.6,2.4-3.5,2.8l-5.6-5l1.5-1.1h-3.5v1.5h-6.7V539h16.1v15.9c0.6-0.3,1.3-1.1,2.2-2.4c-0.3-2.3-0.6-7.4-1.1-15.2H427
				v-6.1h3.5l-0.9-3.5h-1.5V526h-1.7V567h-6.3v-9.1l-8.3,2.8l-1.7-6.7l2-0.4V526h-1.5v-7h18v2.8h5.4v-5.2h7.2v5.2h4.8v-5h7v5.4
				l4.6-2.4c0.6,0.7,1.3,2,2.2,3.7c0.7,1.7,1.2,3,1.5,3.9l-5.6,2.2C454.9,527.2,454,525.2,452.9,523.8z M418.1,529.9h2V526h-2V529.9
				z M418.1,540.3h2v-4.6h-2V540.3z M418.1,551.8l2-0.7v-5h-2V551.8z M435.5,546.8h2.8v-2.4h-2.8V546.8z M435.5,554.4h2.8V552h-2.8
				V554.4z M435.9,527.7l0.6,3.5h1.5l0.6-3.5H435.9z M443.7,531.2h2.2v-3.5h-1.1L443.7,531.2z"/>
			<path class="st1" d="M479.3,553.8h-11.7v-6.3h21.3v-1.3H473V541h15.9v-1.5h-17.8v-6.1h10.2l-1.1-2.6h-12.8V524h8.3l-3.3-4.8
				l6.3-2.8l4.3,6.3l-2.6,1.3h3.9v-7.8h7.2v7.8h2.6v-7.8h7v7.8h6.1l-3.7-1.5c1.9-2,3.2-4.1,3.9-6.3l6.9,2.8c-0.9,1.9-2,3.5-3.3,5
				h6.3v6.7h-11.7l-1.3,2.6h10v6.1h-17.8v1.5h15.4v5.2h-15.4v1.3h21.3v6.3H506c0.9,0.9,2.6,1.8,5.2,2.8c2.5,1,4.8,1.7,7,2.2
				l-3.9,7.2c-7.1-2.2-13-5.4-17.8-9.8v10.7h-7.6v-11.1c-1,1.5-3,3.1-6.1,5c-3.2,2-6.5,3.7-10,5l-5.4-7c2.5-0.6,4.9-1.4,7.4-2.4
				C477.1,555.4,478.6,554.5,479.3,553.8z M495.8,533.3l1.3-2.6h-8.7l1.1,2.6H495.8z"/>
			<path class="st1" d="M524.3,526.8h21.3v5.9h-21.3V526.8z M525.3,566.6v-17h18.5v10.2c0.7-1.3,1.5-3.5,2.2-6.7
				c0.9-4,1.3-8.1,1.3-12.2v-22.2h7v24.1c0,4.8-0.2,8.8-0.7,12c-0.6,4.3-2,8.4-4.1,12.2l-5.7-5.4v2.6h-11.3v2.4L525.3,566.6
				L525.3,566.6z M526.2,534.7h17.6v5.9h-17.6V534.7z M526.2,547.7V542h17.6v5.7H526.2z M526.4,524.5v-5.9h17.8v5.9H526.4z
				 M532.5,558.8h4.8v-3.7h-4.8V558.8z M556.4,561.4v-40.2h6.7v40.2H556.4z M565.3,517.3h7.2v49.3h-7.2V517.3z"/>
			<path class="st1" d="M630.2,527h-12.2v1.7h9.6v20.8h-5.9c1,1.5,2.5,3.1,4.3,5c2.3,2.5,4.4,4.1,6.3,4.8l-5,6.3
				c-1.2-0.6-2.8-1.8-4.8-3.7c-2.2-2-3.7-3.8-4.6-5.2V567h-8.3v-10c-0.6,1.3-1.7,2.9-3.3,4.8c-1.9,2-3.4,3.4-4.6,4.1l-5.9-5.2l3-2.6
				l-3.5,0.9c0-3.6-0.4-7-1.3-10.2l4.8-1.3c1,2.9,1.7,5.9,2,8.9c0.7-0.7,1.7-1.8,2.8-3.3c1.3-1.6,2-2.8,2.2-3.5h-5.4v-4.3l-4.8,1.5
				l-0.4-2.4l-1.7,0.2v22.6h-7.2v-21.7l-6.1,0.4l-0.4-6.3h4.1l1.3-2.2l-6.1-7.4l3-7.8l1.1,1.5l3.5-7.8l6.3,2l-5.4,11.7l1.1,1.3
				l4.1-8l4.8,2.8v-5.2h12v-4.3h8.3v4.3h12.2L630.2,527L630.2,527z M579.8,563.1c1.2-6.4,1.5-11.4,1.1-15.2l4.8,0.2
				c0.4,6.4,0.2,11.6-0.7,15.6L579.8,563.1z M592.2,539l1.7-0.2l-0.7-1.5L592.2,539z M600.7,541.8v-13h9.1v-1.7h-11.3l-4.3,8.3
				l4.1-1.5C599.2,535.5,600,538.2,600.7,541.8z M607.4,536.8h2.4v-2.2h-2.4V536.8z M607.4,543.6h2.4v-2h-2.4V543.6z M618.1,536.8
				h2.4v-2.2h-2.4V536.8z M620.5,543.6v-2h-2.4v2H620.5z"/>
			<path class="st1" d="M637.6,526.8h6.3v-10.2h7.2v10.2h3v-3.5h12.8v-6.7h7.6v6.7h13.2v7h-8.9c2.2,4.5,5.4,7.8,9.6,9.8l-3.3,6.7
				c-1.2-0.4-2.2-1.2-3.3-2.2c-0.2,1.5-0.7,3.2-1.7,5.2c-1,2.2-2,3.8-2.8,4.8c1.9,2,5.7,4,11.5,5.9l-4.3,7.4
				c-4.5-1.5-8.5-3.8-12.2-7.2c-3.3,3-7.5,5.4-12.6,7l-5.2-6.7c5.8-1.6,9.8-3.5,12.2-5.9c-2.3-2.9-4.1-6.3-5.2-10.2
				c-1.5,1.5-2.5,2.3-3,2.6l-1.7-2.2l-2.4,5l-3.3-4.6v21.1h-7.2V551c-0.9,1.9-2.1,3.8-3.7,5.9l-3.9-8.3c1.6-2,3.2-4.6,4.8-7.8
				c1.5-2.9,2.4-5.3,2.8-7.2h-6.3V526.8z M663.2,530.3h-6.1v3.3h-5.7c1.3,2.6,2.7,4.8,4.1,6.5C659.7,537,662.2,533.8,663.2,530.3z
				 M663.7,542.7l3.9-1.5c1.5,4.1,2.9,6.9,4.3,8.5c1.7-1.7,3-4.6,3.7-8.5l2.8,0.7c-0.6-0.4-1.5-1.6-2.8-3.5
				c-1.2-1.7-2.1-3.3-2.8-4.8l5.2-3.3h-14.3l6.1,2.8c-0.3,1.5-1.1,3.2-2.4,5.2C666.1,540.5,664.8,542,663.7,542.7z"/>
		</g>
		<path class="st1" d="M746,621.2H35V461.1h711V621.2z M53.6,602.5h673.8V479.7H53.6V602.5z"/>
	</g>
	<g>
		<g>
			<g>
				<g>
					<path class="st1" d="M311.4,770.7h30.2v5.7h-11.3c-0.1,3.9-1.2,7.3-3.2,10.1c-2.1,3.1-5.2,5.4-9,6.9l-3.8-4.6
						c3.3-1.2,5.7-2.7,7.2-4.4c1.8-2.2,2.8-4.8,2.9-8.1h-12.9L311.4,770.7L311.4,770.7z M315.4,761.6h22.2v5.4h-22.2V761.6z
						 M338,764.7l2.3-1.8l3.1,3.7l-2.3,2L338,764.7z M339.8,760.9l2.3-1.8l3.1,3.7l-2.5,1.8L339.8,760.9z"/>
					<path class="st1" d="M346.4,772.8v-5.2h6.6v-7h5.7v7h7.5v-7.4h5.7v7.4h6.4v5.2h-6.4c0,4.9-0.9,8.9-2.8,12.1
						c-1.9,3.3-5,5.9-9.2,8l-4.1-4.3c3.8-1.8,6.4-3.9,8-6.3c1.6-2.3,2.5-5.5,2.5-9.5h-7.5v8.4H353v-8.4L346.4,772.8L346.4,772.8z
						 M372.3,763.2l2.3-1.8l2.8,3.5l-2.5,2L372.3,763.2z M375.4,760.7l2.3-1.8l2.8,3.4l-2.5,1.8L375.4,760.7z"/>
					<path class="st1" d="M381.2,776.7c10.8-4.3,19.1-9.8,24.8-16.5l4.9,4c-3.1,3.4-6.5,6.3-10.3,8.7v19.8h-6v-16.1
						c-3.2,2-6.6,3.9-10.3,5.5L381.2,776.7z"/>
					<path class="st1" d="M412.8,765.9l3.8-4.8c2.5,1.7,5.3,3.8,8.3,6.3l-4,4.8C418.4,770.1,415.7,768,412.8,765.9z M412.9,786.6
						c6-1.6,11.1-3.9,15.3-6.7c4.7-3.2,8.7-7.4,12.1-12.6l4,4.9c-3.8,5-8,9.2-12.7,12.4c-4.3,3-9.7,5.6-16.1,8L412.9,786.6z"/>
					<path class="st1" d="M446.3,775.7c5.1-4.2,9-9.5,11.6-15.9l5.5,2.2l-1.4,3.2h9.2l0.5-0.6l4.5,2.8c-3.8,12-10.7,20.6-20.9,26.1
						l-4.3-4.6c9-4.6,14.9-10.8,17.6-18.5H459c-2.1,3.3-4.9,6.4-8.1,9.3L446.3,775.7z"/>
					<path class="st1" d="M480.2,780.2v-19.6h5.7v19.6H480.2z M485.2,788.6c7.9-2.9,11.8-8.5,11.8-17v-11.8h5.8V774
						c0,4.1-1.2,7.9-3.7,11.3c-2.7,3.9-6,6.5-10.1,7.8L485.2,788.6z"/>
					<path class="st1" d="M507,789.5v-5.2h12.6v-14.7h-10v-5.2h26.1v5.2h-10v14.7h12.6v5.2H507z"/>
					<path class="st1" d="M541,773.9h14.9v5.2H541V773.9z"/>
					<path class="st1" d="M557.7,774.8c2.9-2.2,5.3-4.4,7.2-6.9c1.5-2,3.2-4.8,4.9-8.3l5.4,2.3c-0.4,0.7-1.1,1.9-2.2,3.7h9l0.5-0.8
						l4.3,2.6c-1.9,4.8-4.1,8.9-6.6,12.3c1.4,1.1,2.5,2.1,3.4,2.9l-3.5,4.4c-0.6-0.6-1.2-1.2-1.7-1.7c-0.6-0.6-1.2-1.1-1.7-1.4
						c-3.5,4-8,7.1-13.6,9.3l-3.4-5.1c5.9-2.2,10.2-4.8,12.7-7.5c-1.9-1.4-3.8-2.6-5.5-3.5l3.5-4.1c1.2,0.6,3.1,1.7,5.5,3.4
						c1.5-1.9,2.5-3.8,3.1-5.5h-9.5c-2.7,3.4-5.4,6.1-8.1,8.1L557.7,774.8z"/>
					<path class="st1" d="M589.3,773.9h14.9v5.2h-14.9V773.9z"/>
					<path class="st1" d="M607.1,769.8h6.6v-4c-1.8,0.4-3.7,0.7-5.5,0.9l-1.7-4.6c5.3-0.5,10.1-1.6,14.4-3.2l2.9,4
						c-1.1,0.6-2.9,1.2-5.2,1.8v5.1h4.8v4.1l2.9-4c2.2,0.9,4.3,2.5,6.4,4.6l-3.4,4.1c-1.6-1.8-3.6-3.2-6-4.1H619
						c1.7,2,3.2,3.6,4.3,4.6l-2.3,5.5l-2.5-3.1v12.7h-4.9v-10.6c-2,3.4-3.5,5.5-4.3,6.4l-2.9-5.2c1-1.1,2.2-2.9,3.7-5.2
						c1.4-2.2,2.4-4,2.9-5.2h-6L607.1,769.8L607.1,769.8z M623.2,782.2l10.7-2.5v-20.8h5.4v19.6l2.2-0.8l0.9,5.4l-3.1,0.8v10.3h-5.4
						v-9.2l-9.5,2.2L623.2,782.2z M624,765.5l2.8-4.1c0.8,0.3,1.8,0.9,3.1,1.7c1.5,1,2.5,1.8,3.1,2.5l-3.1,4.3
						C628.2,767.9,626.3,766.5,624,765.5z"/>
				</g>
			</g>
			<g>
				<path class="st1" d="M311.3,652.3h25l0.5-0.6l4.3,2.8c-2,7-4.6,12.6-7.7,16.5c-3.6,4.7-8.4,8.6-14.6,11.7l-3.8-4.9
					c10.3-4.7,16.6-11.4,18.9-20.2h-22.5L311.3,652.3L311.3,652.3z"/>
				<path class="st1" d="M345,680.4V654h26.8v26.4h-5.7v-2h-15.5v2H345z M350.7,673h15.5v-13.6h-15.5V673z"/>
				<path class="st1" d="M375.5,656l3.8-4.8c2.5,1.7,5.3,3.8,8.3,6.3l-4,4.8C381.2,660.1,378.5,658,375.5,656z M375.7,676.7
					c6-1.6,11.1-3.9,15.3-6.7c4.7-3.2,8.7-7.4,12.1-12.6l4,4.9c-3.8,5-8,9.2-12.7,12.4c-4.3,3-9.7,5.6-16.1,8L375.7,676.7z"/>
				<path class="st1" d="M410.5,649.7h5.8v13l2.8-3.4c3.4,1.9,7.7,4.9,12.9,8.9l-3.7,4.6c-5.7-4.5-9.7-7.4-12-8.6V683h-5.8
					L410.5,649.7L410.5,649.7z"/>
				<path class="st1" d="M434.2,679.6v-5.2h12.6v-14.7h-10v-5.2h26.1v5.2h-10v14.7h12.6v5.2H434.2z"/>
				<path class="st1" d="M468.5,656l3.8-4.8c2.5,1.7,5.3,3.8,8.3,6.3l-4,4.8C474.2,660.1,471.5,658,468.5,656z M468.7,676.7
					c6-1.6,11.1-3.9,15.3-6.7c4.7-3.2,8.7-7.4,12.1-12.6l4,4.9c-3.8,5-8,9.2-12.7,12.4c-4.3,3-9.7,5.6-16.1,8L468.7,676.7z"/>
				<path class="st1" d="M503.5,649.7h5.8v13l2.8-3.4c3.4,1.9,7.7,4.9,12.9,8.9l-3.7,4.6c-5.7-4.5-9.7-7.4-12-8.6V683h-5.8
					L503.5,649.7L503.5,649.7z M516.4,654.9l2.9-2.2l3.4,4.1l-2.9,2.3L516.4,654.9z M520.5,652.3l2.8-2l3.4,3.8l-2.8,2.2
					L520.5,652.3z"/>
				<path class="st1" d="M540.6,656h3.8v-1.2h-5.1v-4h5.1v-2.2h5.2v2.2h3.4v-2.2h5.1v2.2h5.4v4h-5.4v1.2h4v3.5h-4v1.1h6v4h-10.1v1.1
					h7.5v8.6h2.8v4.1h-2.8v2.3c0,2.3-1.2,3.5-3.5,3.5h-3.8l-1.1-4.6h2c0.9,0.2,1.3-0.2,1.1-1.1v-0.2h-9.5v6H541v-6h-2.5v-4.1h2.5
					v-8.6h7.7v-1.1h-8.9l0.8,1.1l-1.7,5.7l-1.4-2.5v15.5h-5.2v-12c-0.6,1.9-1.2,3.3-1.7,4l-2.5-6.1c2.2-4.3,3.5-7.5,3.8-9.5h-3.4
					V656h3.7v-7.4h5.2v7.4h2.3v4.6h4.6v-1.1h-3.8L540.6,656L540.6,656z M537.7,660.8l1.4,2.6v-2.6H537.7z M546.6,670.3h2.2v-1.1
					h-2.2V670.3z M546.6,674.2h2.2v-1.1h-2.2V674.2z M549.6,656h3.4v-1.2h-3.4V656z M549.6,660.6h3.4v-1.1h-3.4V660.6z M553.9,670.3
					h2.2v-1.1h-2.2V670.3z M553.9,674.2h2.2v-1.1h-2.2V674.2z"/>
				<path class="st1" d="M577.8,675H568v-4.4h14.9v-1.8h0.8l-0.9-0.6c-3.8,0.6-8.3,1.2-13.6,1.8l-0.8-4.4l5.7-0.6v-2.2h-4.4v-4.3
					H583v4.3h-4.1v1.5l3.8-0.5l0.3,1.7c1.4-1.3,2.1-3.7,2-7h13.5v5.4c-0.2,0.6,0,0.8,0.6,0.6h0.3c0.2,0,0.4-1.2,0.5-3.5l4,1.4
					c0,2.5-0.2,4.1-0.5,5.1c-0.5,1.4-1.5,2.2-2.9,2.2h-4.3c-1.2,0-2.1-0.6-2.6-1.8l-3.2,1.4c-0.3-1.1-0.9-2.1-1.7-2.9
					c-0.2,1-0.8,1.9-1.7,2.6h1.4v1.8h14.9v4.4H593c0.8,0.8,2.2,1.7,4.1,2.6c2.2,1.1,4.4,1.8,6.4,2l-2.6,5.1
					c-5.3-1.2-9.5-3.5-12.6-6.7v6.3h-5.5v-6.4c-1,1.2-2.6,2.5-4.8,3.8c-2.6,1.5-5,2.5-7.2,3.1l-3.2-5.1
					C572.5,678.6,575.9,677.1,577.8,675z M567.9,654.2c2.8-1.8,4.5-3.8,5.2-5.8l5.4,0.8c-0.1,0.4-0.4,1-0.9,1.7h8.3v1.5
					c1.3-1.3,2.2-2.6,2.5-3.8l5.4,0.9l-0.6,1.4h9.8v4.5h-5.4l0.6,2.5h-5.4l-0.3-2.5h-1.8c-0.9,1.3-1.6,2.2-2.2,2.5l-4.1-2.5h-3.4
					l0.5,2.5h-5.1l-0.5-2.5h-1.4c-1.4,1.3-2.5,2.2-3.1,2.6L567.9,654.2z M593.6,666.4v-4.1h-4.3v1.4l2.2-1.1
					C592.4,663.5,593.1,664.8,593.6,666.4z"/>
				<path class="st1" d="M607.4,659.8h6.6v-4c-1.8,0.4-3.7,0.7-5.5,0.9l-1.7-4.6c5.3-0.5,10.1-1.6,14.4-3.2l2.9,4
					c-1.1,0.6-2.9,1.2-5.2,1.8v5.1h4.8v4.1l2.9-4c2.2,0.9,4.3,2.5,6.4,4.6l-3.4,4.1c-1.6-1.8-3.6-3.2-6-4.1h-4.3
					c1.7,2,3.2,3.6,4.3,4.6l-2.3,5.5l-2.5-3.1v12.7H614v-10.6c-2,3.4-3.5,5.5-4.3,6.4l-2.9-5.2c1-1.1,2.2-2.9,3.7-5.2
					c1.4-2.2,2.4-4,2.9-5.2h-6L607.4,659.8L607.4,659.8z M623.5,672.2l10.7-2.5V649h5.4v19.6l2.2-0.8l0.9,5.4l-3.1,0.8v10.3h-5.4
					V675l-9.5,2.2L623.5,672.2z M624.3,655.5l2.8-4.1c0.8,0.3,1.8,0.9,3.1,1.7c1.5,1,2.5,1.8,3.1,2.5l-3.1,4.3
					C628.6,658,626.6,656.6,624.3,655.5z"/>
			</g>
			<g>
				<path class="st1" d="M311.3,707.3h25.4c-0.3-1.2-0.1-2.3,0.5-3.2c0.6-1,1.6-1.5,3.1-1.5c1,0,1.9,0.4,2.6,1.1
					c0.6,0.6,1,1.4,1.1,2.3c0.1,1-0.1,1.9-0.6,2.6c-0.5,0.8-1.3,1.3-2.5,1.5c-2.1,7.3-5,13-8.4,17.2c-3.3,4.1-7.8,7.6-13.6,10.4
					l-3.8-4.9c10.3-4.7,16.6-11.4,18.9-20.2h-22.5L311.3,707.3L311.3,707.3z M341.3,707.4c0.3-0.3,0.5-0.7,0.5-1.1
					c0-0.4-0.1-0.8-0.5-1.1c-0.3-0.3-0.7-0.5-1.1-0.5c-0.4,0-0.8,0.2-1.1,0.5c-0.3,0.3-0.5,0.7-0.5,1.1c0,0.4,0.1,0.8,0.5,1.1
					c0.3,0.3,0.7,0.5,1.1,0.5C340.7,707.9,341,707.8,341.3,707.4z"/>
				<path class="st1" d="M346.7,735.3V709h26.8v26.4h-5.7v-2h-15.5v2H346.7z M352.4,728h15.5v-13.6h-15.5V728z"/>
				<path class="st1" d="M376.9,720.8c5.1-4.2,9-9.5,11.6-15.9l5.5,2.2l-1.4,3.2h9.2l0.5-0.6l4.5,2.8c-3.8,12-10.7,20.6-20.9,26.1
					l-4.3-4.6c9-4.6,14.9-10.8,17.6-18.5h-9.7c-2.1,3.3-4.9,6.4-8.1,9.3L376.9,720.8z M397.4,705l2.6-1.8l3.5,4l-2.8,1.8L397.4,705z
					 M402.9,704.8l2.5-1.8l3.5,3.8l-2.8,2L402.9,704.8z"/>
				<path class="st1" d="M410.8,719.7v-5.2h25.1l0.5-0.5l3.8,2.8c-1.5,4.7-3.8,8.8-6.7,12.4c-3.6,4.4-7.7,7.4-12.3,9l-3.7-4.6
					c7.8-3.3,12.8-7.9,15.2-14L410.8,719.7L410.8,719.7z M414.4,711.3v-5.1h20.8v5.1H414.4z"/>
				<path class="st1" d="M443.6,729.7l1.7-5.1c6.4,1.3,14.5,3.7,24.1,7.2l-2,5.2C458.1,733.5,450.2,731,443.6,729.7z M446.3,710
					l1.7-5.2c6.4,1.2,13,3,19.6,5.2l-2,5.4C458.5,712.7,452,710.9,446.3,710z M447.4,719.5l1.5-5.1c5.3,1.4,10.9,3.2,16.9,5.4
					l-1.8,5.2C457.8,722.5,452.3,720.7,447.4,719.5z"/>
				<path class="st1" d="M472.2,711l3.8-4.8c2.5,1.7,5.3,3.8,8.3,6.3l-4,4.8C477.9,715.1,475.2,713,472.2,711z M472.4,731.7
					c6-1.6,11.1-3.9,15.3-6.7c4.7-3.2,8.7-7.4,12.1-12.6l4,4.9c-3.8,5-8,9.2-12.7,12.4c-4.3,3-9.7,5.6-16.1,8L472.4,731.7z"/>
				<path class="st1" d="M505.8,720.8c5.1-4.2,9-9.5,11.6-15.9l5.5,2.2l-1.4,3.2h9.2l0.5-0.6l4.5,2.8c-3.8,12-10.7,20.6-20.8,26.1
					l-4.3-4.6c9-4.6,14.9-10.8,17.6-18.5h-9.7c-2.2,3.3-4.8,6.4-8.1,9.3L505.8,720.8z M526.3,705l2.6-1.8l3.5,4l-2.8,1.8L526.3,705z
					 M531.8,704.8l2.5-1.8l3.5,3.8l-2.8,2L531.8,704.8z"/>
				<path class="st1" d="M540.1,714.8h6.6v-4c-1.8,0.4-3.7,0.7-5.5,0.9l-1.7-4.6c5.3-0.5,10.1-1.6,14.4-3.2l2.9,4
					c-1.1,0.6-2.9,1.2-5.2,1.8v5.1h4.8v4.1l2.9-4c2.2,0.9,4.3,2.5,6.4,4.6l-3.4,4.1c-1.6-1.8-3.6-3.2-6-4.1h-4.3
					c1.7,2,3.2,3.6,4.3,4.6l-2.3,5.5l-2.5-3.1v12.7h-4.9v-10.6c-2,3.4-3.5,5.5-4.3,6.4l-2.9-5.2c1-1.1,2.2-2.9,3.7-5.2
					c1.4-2.2,2.4-4,2.9-5.2h-6L540.1,714.8L540.1,714.8z M556.2,727.2l10.7-2.5v-20.8h5.4v19.6l2.2-0.8l0.9,5.4l-3.1,0.8v10.3h-5.4
					V730l-9.5,2.2L556.2,727.2z M557,710.5l2.8-4.1c0.8,0.3,1.8,0.9,3.1,1.7c1.5,1,2.5,1.8,3.1,2.5l-3.1,4.3
					C561.3,713,559.3,711.5,557,710.5z"/>
			</g>
		</g>
		<g>
			<g>
				<path class="st1" d="M58,668.4H46.3v-4.9h14.4v-3.7H49.4V655h11.3v-4.3H66v4.3h11v4.7H66v3.7h14.1v4.9H68.5
					c1.5,2.4,3.3,4.4,5.5,6.1c1.7,1.3,3.9,2.7,6.7,4.2l-3.4,4.7c-4.2-1.9-8-5.1-11.3-9.8v11.5h-5.3v-11.8c-2.9,4.7-6.5,8.2-11,10.5
					l-3.6-5c2.6-1,4.9-2.5,7.1-4.4C55.3,672.4,56.9,670.5,58,668.4z"/>
				<path class="st1" d="M87.3,681.4c0.6-2.6,1-6,1.2-10.4l4.2,0.6c-0.2,4.9-0.5,8.6-1,11.1L87.3,681.4z M91.9,664.2l-4.4-5.2
					l2.7-4.2l0.7,0.9l3-5l3.8,1.9l-3.7,6.5l0.7,0.9l3-4.6l4.2,2.5l-5.3,7.7l2.4-0.2l-0.4-1.9l3.7-0.9l0.4,1.5c2.1-0.6,3.8-1.3,5-2.1
					c-1.3-1.4-2.5-3.1-3.6-5h-1.9v-4.9h15.8l0.3-0.3l3.6,3.3c-1.4,2.6-3.4,4.9-5.9,7c1.5,0.9,3.8,1.6,6.8,2.1l-2.2,4.7
					c-3.2-0.5-6.1-1.6-8.9-3.3c-2.4,1.6-4.2,2.7-5.6,3.4l-3-3.1l1.2,4l-4.3,1.2l-0.2-1.3l-1.6,0.2v15h-5v-14.7l-5.2,0.3l-0.4-4.6
					h3.3L91.9,664.2z M102,679.8l-2.7,0.3l-0.7-7.8l3.7-0.5l1.2,7.3h6.1v-3.4H104v-4.7h5.5v-3.1h5.2v3.1h5.9v4.7h-5.9v3.4h7.4v4.9
					h-20.2L102,679.8L102,679.8z M109.5,657.1c0.5,1,1.2,1.8,2.1,2.5c1-0.7,1.8-1.5,2.4-2.5H109.5z"/>
				<path class="st1" d="M129,682.6c0.5-2.1,0.8-5.2,1-9.5l2.4,0.6c0,3.8-0.1,7.1-0.4,9.6L129,682.6z M152.3,650.5l5.2,0.6l-0.4,0.7
					c0.7,1,1.7,2,3,3.1c1.8,1.4,3.3,2.3,4.6,2.8l-2.1,5.2c-0.5-0.2-1.2-0.6-2.2-1.3v1.6h-3.6v1.3h6.1v9.8H157c0.5,1,1.5,2.1,3,3.4
					c1.5,1.3,3.1,2.3,4.7,3l-3,4.6c-3.2-1.6-5.7-3.8-7.6-6.8c-1.4,2.8-3.8,5.1-7.3,7l-2.7-4.3c-0.1,2.5-1.7,3.7-4.7,3.7h-3l-1-3.7
					l-2.5,0.3l-0.1-7.7l1.9-0.2l0.6,6.7h2.4c0.8,0,1.3-0.2,1.5-0.6c0.2-0.3,0.3-0.9,0.3-1.8v-0.4l-1.3,0.4l-0.7-4.7l1.8-0.3l0.3,1.3
					v-1.9h-8.9v-20.4H145v4.7h-3.6v1.2h2.5v0.3C147.5,656.4,150.3,653.9,152.3,650.5z M135.4,657.7h1.6v-1.2h-1.6V657.7z
					 M135.4,662.8h1.6v-1.2h-1.6V662.8z M135.4,667.8h1.6v-1h-1.6V667.8z M137,673.3l0.9,5.2L136,679l-0.6-5.5L137,673.3z
					 M150.8,674.3h-5.5v-9.8h6.2v-1.3h-3.7v-1.6c-0.4,0.4-1,0.8-1.8,1.2L144,659v2.5h-2.5v1.2h2.5v4h-2.5v1h3.1l-0.3,12.9
					C148.1,678.9,150.3,676.8,150.8,674.3z M150.5,670.2h1v-1.6h-1V670.2z M151.1,659.2h5.9c-0.7-0.5-1.7-1.4-3.1-2.8
					C153,657.6,152.1,658.5,151.1,659.2z M156.7,670.2h1v-1.6h-1V670.2z"/>
				<path class="st1" d="M190.1,683.6l-2.7-4.7c3.8-1.3,6.3-2.9,7.6-4.7c2.5-3.7,2.9-7.2,1.3-10.5c-1.5-3.3-4.1-4.8-8-4.7
					c0,10.3-2.2,17.3-6.5,21c-1.8,1.5-3.6,1.9-5.5,1.2c-2-0.8-3.5-2.2-4.4-4.3c-2-4-2-8.2-0.1-12.6c1.9-4.2,4.9-7.2,9.2-8.9
					c3.1-1.2,6.1-1.6,9-1.2c3.2,0.3,5.8,1.5,8,3.6c2.6,2.4,4,5.3,4.3,8.9c0.3,3.8-0.6,7.3-2.7,10.2
					C197.4,679.9,194.3,682.2,190.1,683.6z M183.3,659.5c-4.4,1.6-6.9,4.8-7.4,9.6c-0.2,1.4-0.1,2.8,0.4,4.2
					c0.6,1.7,1.4,2.3,2.4,1.8c1.3-0.6,2.4-2.2,3.3-4.9C182.9,667.5,183.3,663.9,183.3,659.5z"/>
				<path class="st1" d="M218.4,660.4h-10.1v-4.9h5.2c-0.9-1.2-1.5-2.3-1.9-3.3l4.3-1.6c0.6,1.6,1.3,2.9,2.1,3.8l-2.8,1h5.2l1.8-5
					l4.9,0.6l-1.3,4.5h11l-0.9,6.4h2.7l-1,6.4h2.8l-0.4,7.5l-0.3,3c-0.3,2.9-1,4.6-2.1,5.3c-0.7,0.7-2.4,1-5,1h-2.2l-1.6-4.6h3.7
					c1,0,1.7-0.5,2.1-1.6c0.2-0.7,0.3-1.8,0.4-3.3l0.1-2.7h-3c0.6,1.1,1.2,2.6,1.9,4.6l-4,1.9c-0.6-3-1.2-4.9-1.9-5.8l2.1-0.7h-15.1
					l-1.2,1l3.1,1.2c-0.9,4.3-2.4,7.8-4.6,10.2l-4.6-3c1-0.9,1.9-2.1,2.8-3.7c0.8-1.4,1.3-2.5,1.5-3.4c-0.7,0.7-1.8,1.5-3.4,2.5
					l-2.2-5.5c3.2-1.6,5.7-3.4,7.7-5.5C215.6,665.2,217,663,218.4,660.4z M217.2,674.9l4.3-0.7c0.3,1.4,0.5,2.7,0.7,3.8
					c0.3,1.8,0.5,3.5,0.7,5.2l-5.3,0.9C217.7,679.7,217.5,676.7,217.2,674.9z M219,668.2h12.9l0.4-1.8h-11.8L219,668.2z
					 M224.4,681.4c-0.3-2.5-0.9-4.7-1.8-6.8l3.9-1.2c0.5,0.9,1.3,3.1,2.5,6.5L224.4,681.4z M223.2,661.9h7.1l0.3-1.5h-6.7
					L223.2,661.9z"/>
				<path class="st1" d="M265.4,683.6l-2.7-4.7c3.8-1.3,6.3-2.9,7.6-4.7c2.5-3.7,2.9-7.2,1.3-10.5c-1.5-3.3-4.1-4.8-8-4.7
					c0,10.3-2.2,17.3-6.5,21c-1.8,1.5-3.6,1.9-5.5,1.2c-2-0.8-3.5-2.2-4.4-4.3c-2-4-2-8.2-0.1-12.6c1.9-4.2,4.9-7.2,9.2-8.9
					c3.1-1.2,6.1-1.6,9-1.2c3.2,0.3,5.8,1.5,8,3.6c2.6,2.4,4,5.3,4.3,8.9c0.3,3.8-0.6,7.3-2.7,10.2
					C272.7,679.9,269.6,682.2,265.4,683.6z M258.6,659.5c-4.4,1.6-6.9,4.8-7.4,9.6c-0.2,1.4-0.1,2.8,0.4,4.2
					c0.6,1.7,1.4,2.3,2.4,1.8c1.3-0.6,2.4-2.2,3.3-4.9C258.2,667.5,258.6,663.9,258.6,659.5z"/>
			</g>
			<g>
				<path class="st1" d="M66.2,705.4L77.9,756l2.5,14.1l2.6-13.8l10-50.9h19.5L123,756l2.7,14.1l2.7-13.5l11.8-51.1H159l-24.9,88.4
					h-17.7l-10.7-51.7l-3.1-17.1l-3.1,17.1l-10.7,51.7H71.7l-25.1-88.4L66.2,705.4L66.2,705.4z"/>
				<path class="st1" d="M201.5,729.8c4.6,2,8.3,5.3,11.3,9.7c2.7,3.9,4.4,8.4,5.2,13.5c0.5,3,0.6,7.3,0.6,13H171
					c0.3,6.5,2.5,11.2,6.8,13.8c2.6,1.6,5.8,2.5,9.4,2.5c3.9,0,7.1-1,9.5-3c1.3-1.1,2.5-2.6,3.5-4.5h17.4c-0.5,3.9-2.6,7.8-6.3,11.8
					c-5.9,6.3-14.1,9.5-24.6,9.5c-8.7,0-16.4-2.7-23-8s-10-14.1-10-26.2c0-11.3,3-20,9-26s13.8-9.1,23.4-9.1
					C191.8,726.7,196.9,727.7,201.5,729.8z M175.9,744.5c-2.4,2.5-3.9,5.9-4.6,10.1h29.4c-0.3-4.5-1.8-8-4.6-10.3
					c-2.7-2.3-6.1-3.5-10.1-3.5C181.7,740.8,178.3,742,175.9,744.5z"/>
				<path class="st1" d="M283,736.3c4.9,6.2,7.3,14.2,7.3,24c0,10.2-2.4,18.6-7.2,25.2c-4.8,6.7-11.5,10-20.2,10
					c-5.4,0-9.8-1.1-13.1-3.2c-2-1.3-4.1-3.5-6.4-6.7v8.2h-16.9v-88.2h17.1v31.4c2.2-3,4.6-5.4,7.2-7c3.1-2,7-3,11.8-3
					C271.3,727,278.1,730.1,283,736.3z M268.7,776.1c2.5-3.6,3.7-8.2,3.7-14c0-4.6-0.6-8.5-1.8-11.5c-2.3-5.8-6.5-8.6-12.7-8.6
					c-6.2,0-10.5,2.8-12.9,8.5c-1.2,3-1.8,6.9-1.8,11.6c0,5.6,1.2,10.2,3.8,13.9s6.3,5.5,11.4,5.5
					C262.8,781.4,266.2,779.7,268.7,776.1z"/>
			</g>
		</g>
	</g>
	<g>
		<rect x="35" y="824.5" class="st3" width="711" height="171.9"/>
		<g>
			<g>
				<path class="st1" d="M92,862.1l5.3,23.1l1.2,6.4l1.2-6.3l4.6-23.2h8.9l4.8,23.1l1.2,6.4l1.2-6.2l5.4-23.3h8.6L123,902.4h-8.1
					l-4.9-23.6l-1.4-7.8l-1.4,7.8l-4.9,23.6h-7.8l-11.4-40.3H92z"/>
				<path class="st1" d="M158.2,873.2c2.1,0.9,3.8,2.4,5.1,4.4c1.2,1.8,2,3.8,2.4,6.2c0.2,1.4,0.3,3.3,0.3,5.9h-21.7
					c0.1,3,1.2,5.1,3.1,6.3c1.2,0.8,2.6,1.1,4.3,1.1c1.8,0,3.2-0.5,4.3-1.4c0.6-0.5,1.1-1.2,1.6-2h8c-0.2,1.8-1.2,3.6-2.9,5.4
					c-2.7,2.9-6.4,4.3-11.2,4.3c-4,0-7.5-1.2-10.5-3.7c-3-2.4-4.6-6.4-4.6-11.9c0-5.2,1.4-9.1,4.1-11.9c2.7-2.8,6.3-4.1,10.7-4.1
					C153.8,871.8,156.1,872.2,158.2,873.2z M146.5,879.9c-1.1,1.1-1.8,2.7-2.1,4.6h13.4c-0.1-2.1-0.8-3.6-2.1-4.7
					c-1.2-1.1-2.8-1.6-4.6-1.6C149.2,878.2,147.6,878.8,146.5,879.9z"/>
				<path class="st1" d="M195.4,876.1c2.2,2.8,3.3,6.5,3.3,10.9c0,4.6-1.1,8.5-3.3,11.5c-2.2,3-5.3,4.6-9.2,4.6
					c-2.5,0-4.5-0.5-6-1.5c-0.9-0.6-1.9-1.6-2.9-3.1v3.8h-7.7v-40.2h7.8v14.3c1-1.4,2.1-2.4,3.3-3.2c1.4-0.9,3.2-1.4,5.4-1.4
					C190,871.9,193.1,873.3,195.4,876.1z M188.8,894.3c1.1-1.6,1.7-3.8,1.7-6.4c0-2.1-0.3-3.9-0.8-5.2c-1.1-2.6-3-3.9-5.8-3.9
					c-2.9,0-4.8,1.3-5.9,3.8c-0.6,1.4-0.8,3.1-0.8,5.3c0,2.5,0.6,4.7,1.7,6.3c1.1,1.7,2.9,2.5,5.2,2.5
					C186.1,896.7,187.7,895.9,188.8,894.3z"/>
				<path class="st1" d="M205.2,874.1h43.1v8.1h-16.2c-0.1,5.5-1.7,10.4-4.6,14.4c-3.1,4.4-7.4,7.7-12.9,9.8l-5.5-6.6
					c4.7-1.8,8.1-3.9,10.3-6.3c2.6-3.1,4-6.9,4.2-11.6h-18.4L205.2,874.1L205.2,874.1z M210.9,861.2h31.7v7.7h-31.7V861.2z
					 M243.1,865.6l3.3-2.6l4.4,5.2l-3.3,2.8L243.1,865.6z M245.7,860.1l3.3-2.6l4.4,5.2l-3.5,2.6L245.7,860.1z"/>
				<path class="st1" d="M255.1,877.2v-7.4h9.4v-10.1h8.1v10.1h10.7v-10.5h8.1v10.5h9.2v7.4h-9.2c0,7-1.3,12.8-3.9,17.3
					c-2.8,4.7-7.1,8.5-13.1,11.4l-5.9-6.1c5.4-2.6,9.2-5.6,11.4-9c2.3-3.3,3.5-7.9,3.5-13.6h-10.7v12h-8.1v-12L255.1,877.2
					L255.1,877.2z M292.1,863.4l3.3-2.6l3.9,5l-3.5,2.8L292.1,863.4z M296.5,859.9l3.3-2.6l3.9,4.8l-3.5,2.6L296.5,859.9z"/>
				<path class="st1" d="M304.8,882.6c15.5-6.1,27.3-14,35.4-23.6l7,5.7c-4.4,4.8-9.3,9-14.6,12.5v28.2H324v-23
					c-4.5,2.9-9.4,5.5-14.6,7.9L304.8,882.6z"/>
				<path class="st1" d="M349.8,867.3l5.5-6.8c3.6,2.5,7.6,5.5,11.8,9l-5.7,6.8C357.9,873.2,354,870.2,349.8,867.3z M350,896.9
					c8.6-2.3,15.9-5.5,21.9-9.6c6.7-4.5,12.5-10.5,17.3-17.9l5.7,7c-5.4,7.2-11.5,13-18.1,17.7c-6.1,4.2-13.8,8-23,11.4L350,896.9z"
					/>
				<path class="st1" d="M397.7,881.3c7.3-6,12.8-13.6,16.6-22.8l7.9,3.1l-2,4.6h13.1l0.7-0.9l6.3,3.9
					c-5.4,17.1-15.3,29.5-29.8,37.2l-6.1-6.6c12.8-6.6,21.2-15.4,25.1-26.5h-13.8c-3.1,4.7-6.9,9.1-11.6,13.3L397.7,881.3z"/>
				<path class="st1" d="M446,887.7v-28h8.1v28H446z M453.3,899.7c11.2-4.1,16.8-12.2,16.8-24.3v-16.8h8.3v20.3
					c0,5.8-1.8,11.2-5.2,16.2c-3.8,5.5-8.6,9.3-14.4,11.2L453.3,899.7z"/>
				<path class="st1" d="M484.3,901v-7.4h17.9v-21H488v-7.4h37.2v7.4H511v21h17.9v7.4H484.3z"/>
				<path class="st1" d="M533.5,878.7h33.9v7.4h-33.9V878.7z"/>
				<path class="st1" d="M570.8,880c4.1-3.1,7.5-6.3,10.3-9.8c2.2-2.9,4.5-6.8,7-11.8l7.7,3.3c-0.6,1-1.6,2.8-3.1,5.2h12.9l0.7-1.1
					l6.1,3.7c-2.8,6.9-5.9,12.7-9.4,17.5c2,1.6,3.6,3,4.8,4.2l-5,6.3c-0.9-0.9-1.7-1.7-2.4-2.4c-0.9-0.9-1.7-1.5-2.4-2
					c-5,5.7-11.5,10.1-19.5,13.3l-4.8-7.2c8.5-3.2,14.5-6.8,18.2-10.7c-2.8-2-5.4-3.7-7.9-5l5-5.9c1.8,0.9,4.4,2.5,7.9,4.8
					c2.2-2.8,3.6-5.4,4.4-7.9h-13.6c-3.8,4.8-7.7,8.7-11.6,11.6L570.8,880z"/>
				<path class="st1" d="M616.7,878.7h33.9v7.4h-33.9V878.7z"/>
				<path class="st1" d="M655.6,872.8h9.4v-5.7c-2.6,0.6-5.2,1-7.9,1.3l-2.4-6.6c7.6-0.7,14.4-2.3,20.6-4.6l4.2,5.7
					c-1.6,0.9-4.1,1.8-7.4,2.6v7.2h6.8v5.9l4.2-5.7c3.1,1.3,6.1,3.5,9.2,6.6l-4.8,5.9c-2.3-2.6-5.2-4.6-8.5-5.9h-6.1
					c2.5,2.9,4.5,5.1,6.1,6.6l-3.3,7.9l-3.5-4.4v18.2h-7v-15.1c-2.9,4.8-5,7.9-6.1,9.2l-4.2-7.4c1.5-1.6,3.2-4.1,5.2-7.4
					c2-3.2,3.4-5.7,4.2-7.4h-8.5L655.6,872.8L655.6,872.8z M678.6,890.5l15.3-3.5v-29.8h7.7v28l3.1-1.1l1.3,7.7l-4.4,1.1v14.7h-7.7
					v-13.1l-13.6,3.1L678.6,890.5z M679.7,866.7l3.9-5.9c1.2,0.4,2.6,1.2,4.4,2.4c2.2,1.5,3.6,2.6,4.4,3.5l-4.4,6.1
					C685.8,870.2,683,868.1,679.7,866.7z"/>
				<path class="st1" d="M226.2,939.5v-5.3c2.4-0.1,4.2-0.3,5.1-0.5c1.6-0.3,2.8-1,3.8-2.1c0.7-0.7,1.2-1.7,1.5-2.8
					c0.2-0.7,0.3-1.2,0.3-1.6h6.5v39.6h-8v-27.3L226.2,939.5L226.2,939.5z"/>
				<path class="st1" d="M254.8,959.1c1.1-2.6,3.7-5.4,7.9-8.4c3.6-2.6,5.9-4.4,7-5.5c1.6-1.7,2.4-3.6,2.4-5.7
					c0-1.7-0.5-3.1-1.4-4.2c-0.9-1.1-2.3-1.7-4-1.7c-2.4,0-4,0.9-4.8,2.7c-0.5,1-0.8,2.6-0.9,4.9h-7.6c0.1-3.4,0.7-6.1,1.8-8.2
					c2.1-4,5.8-5.9,11.1-5.9c4.2,0,7.5,1.2,10,3.5c2.5,2.3,3.7,5.4,3.7,9.2c0,2.9-0.9,5.5-2.6,7.8c-1.1,1.5-3,3.2-5.7,5.1l-3.1,2.2
					c-2,1.4-3.3,2.4-4,3s-1.3,1.3-1.8,2.2h17.3v6.9h-27.1C253,964,253.6,961.5,254.8,959.1z"/>
				<path class="st1" d="M292.3,944.8v-19.1h29.3v37.2c0,4.3-2.1,6.4-6.2,6.4h-6l-2.3-7h5.3c1,0,1.7-0.2,2-0.6
					c0.3-0.3,0.4-1,0.4-2.2v-4.9h-15.8c-0.4,2.7-1.3,5.2-2.7,7.4c-1.7,2.7-3.8,5.1-6.2,7.2l-5.3-6.6c2.9-2.2,4.9-4.7,6.2-7.6
					C291.8,952.9,292.3,949.5,292.3,944.8z M298.9,937h15.6v-5.1h-15.6V937z M298.9,948.5h15.6v-5.3h-15.6V948.5z"/>
				<path class="st1" d="M335,969.6v-44.5h20.3v17H342v27.5L335,969.6L335,969.6z M342,931.7h6.8v-1.6H342V931.7z M342,937.2h6.8
					v-1.8H342V937.2z M347.9,958.2h-4.7v-5.7h5.3v-3.3h-4.3v-5.7h24.4v5.7h-4.3v3.3h5.1v5.7h-5.1v10.1h-6.4v-10.1h-2.9
					c-0.4,2.2-1,4.1-1.8,5.7c-1.2,2.1-3.1,4-5.7,5.7l-4.7-5.5C346.1,962.2,347.8,960.2,347.9,958.2z M355.3,952.6h2.5v-3.3h-2.5
					V952.6z M367.8,969.4l-2.3-6.4h3.7c0.9,0,1.4-0.8,1.4-2.5v-18.3h-13.1v-17h20.1v37.8c0,2.1-0.3,3.6-0.8,4.5
					c-0.6,1.3-1.8,2-3.5,2L367.8,969.4L367.8,969.4z M363.7,931.7h6.8v-1.6h-6.8V931.7z M363.7,937.2h6.8v-1.8h-6.8V937.2z"/>
				<path class="st1" d="M387.2,938.4v-5.3H402v5.3H387.2z M402.6,926.7h5.3v-2.5h7v2.5h4.7v-2.5h6.8v2.5h5.7v5.3h-5.7v1.6h4.1v4.3
					h-4.1v1.6h6.4v5.1h-12.1v1.4h9.2v11.3h2.9v5.3h-2.9v3.1c0,2.6-1.4,3.9-4.3,3.9h-5.9l-1.2-5.7h3.3c1.2,0.3,1.6-0.2,1.4-1.4h-12.1
					v7.2h-6.8v-7.2h-2.7v4.7h-8v2h-5.3v-15.6h13.3v3.7h2.7v-11.3h9.4v-1.4h-12.1v-5.1h6.2v-1.6H404v-4.3h3.9v-1.6h-5.3L402.6,926.7
					L402.6,926.7z M388.7,926.3h12.1v5.1h-12.1V926.3z M388.7,940.1h12.1v5.3h-12.1V940.1z M400.8,946.7v5.1h-12.1v-5.1H400.8z
					 M393.6,962.2h2.7v-3.9h-2.7V962.2z M411.2,952h2.5v-1.6h-2.5V952z M411.2,957.1h2.5v-1.6h-2.5V957.1z M414.9,933.5h4.7v-1.6
					h-4.7V933.5z M414.9,939.3h4.7v-1.6h-4.7V939.3z M420.7,952h2.5v-1.6h-2.5V952z M420.7,957.1h2.5v-1.6h-2.5V957.1z"/>
				<path class="st1" d="M483.9,963.1l-2.7-6.8v9.4c0,2.6-1.2,3.9-3.7,3.9H474l-1.4-4.7l-0.4,0.8l-3.7-2.3c-0.9,3.5-1.7,5.6-2.3,6.2
					l-5.7-4.7c1.2-2.5,2-4.8,2.3-7c0.4-2.2,0.6-5.3,0.6-9.4v-22.6h22.2v6.2h-4.1l-1,2.5h4.5v18.9h-3.9v2.3l3.7-1.6l2.1,4.9v-24.4
					h5.7l1-2.7h-7.2v-6.2h20.3v6.2h-5.7l-1.2,2.7h5.5V961H502c1.4,1.7,3.4,3.1,6,4.3l-3.7,4.7c-2.3-1-4.9-3.2-7.8-6.4l2.9-2.5h-6.8
					l2.5,2.3c-1.7,2.3-4.5,4.5-8.4,6.6l-3.9-4.9c3.2-1.2,5.4-2.5,6.4-4.1h-2L483.9,963.1z M474.9,955.5c-0.4,3.6-1,6.3-1.8,8h0.8
					c0.8,0.1,1.2-0.3,1.2-1.4v-8.6h-4.5v-18.9h3.7l0.8-2.5h-5.5v18.7c0,3.9-0.3,7.2-0.8,10c1-1.4,1.8-3.5,2.1-6.2L474.9,955.5z
					 M476.3,941.9h2.7v-2.2h-2.7V941.9z M476.3,948.5h2.7v-2.2h-2.7V948.5z M493.3,942.5h5.7v-2.3h-5.7V942.5z M493.3,949.1h5.7
					v-2.2h-5.7V949.1z M493.3,955.9h5.7v-2.3h-5.7V955.9z"/>
				<path class="st1" d="M516.7,938.2h13.8v-1.4h-18.7v-4.7h18.7v-1.6h-13.8v-4.3h13.8v-2.5h7.4v2.5h13.8v5.8h5.1v4.7h-5.1v5.7
					h-13.8v1h14.8v3.7h-14.8v1h18.7v4.7h-44.8v-4.7h18.7v-1h-14.8v-3.7h14.8v-1h-13.8L516.7,938.2L516.7,938.2z M517.8,954h32.8
					v15.6h-6.8v-1.8h-19.1v1.6h-6.8V954z M524.7,959.2h19.1v-1.2h-19.1V959.2z M524.7,963.7h19.1v-1.2h-19.1V963.7z M537.9,932.1
					h6.8v-1.6h-6.8V932.1z M537.9,938.2h6.8v-1.4h-6.8V938.2z"/>
				<path class="st1" d="M571.7,951.2h-1.4v-5.8h22.8l0.4-0.6l5.3,3.7v-5.3h-29.5v7.4h-6.8V937h8.2l-2.2-3.9h-3.3l-2-6.6
					c5.1,0.1,10.7,0,17-0.4c9.1-0.5,15.9-1.3,20.3-2.3l3.7,6.4c-0.5,0.3-1.7,0.5-3.5,0.8c-2.3,0.4-4,0.6-5.1,0.6l3.7,1.2l-2.2,4.3
					h8.4v13.7h-6.8v-1.6c-0.8,1.4-2,3.2-3.5,5.3c-2,2.6-3.5,4.3-4.7,5.1c1.2,0.8,3.2,1.5,6,2.2c3.9,0.9,7.2,1.3,9.8,1.2l-2.7,6.8
					c-2.9,0-6-0.5-9.4-1.4c-4.2-1-7.5-2.5-10.1-4.3c-5.3,3.2-11.8,5.3-19.5,6l-2.9-7c7.9-0.8,13.4-2.1,16.4-3.9
					C575.1,955.9,573,953.3,571.7,951.2z M575.8,932.9l1.6,4.1h3.3l-1.4-4.3L575.8,932.9z M579.9,951.2c1.6,2,3.1,3.4,4.7,4.3
					c2.1-1.7,3.5-3.1,4.3-4.3H579.9z M585.9,932.3l1.6,4.7h2.3l2.2-5.1C589.9,932.2,587.9,932.3,585.9,932.3z"/>
				<path class="st1" d="M610.5,944.4c2.7-3.2,4.8-6.4,6.2-9.6c2-4.3,3.1-7.9,3.5-10.9l6.6,1.6c-0.5,2.9-1.5,5.7-2.9,8.4v35.7h-7
					v-22c-0.1,0.5-0.7,1.4-1.6,2.5c-0.9,1.3-1.6,2.1-2,2.3L610.5,944.4z M645.8,969.2h-8.4l-2-7h5.3c1.3,0,2-0.7,2-2.2v-19.1h-17.4
					v-6.4h17.4v-10.7h7.4v10.7h6.2v6.4h-6.2v23.4C650.1,967.5,648.7,969.2,645.8,969.2z M627.8,945.8l6-2.9c0.7,0.8,1.7,2.4,3.1,4.9
					c1.4,2.6,2.3,4.5,2.7,5.8l-5.8,2.9C633.1,953.1,631.1,949.5,627.8,945.8z"/>
				<path class="st1" d="M663.5,956.3v-24h16.8v-8.2h7v8.2h17v24h-6.8v-2.2h-10.1v15.4h-7v-15.4h-10.1v2.2H663.5z M670.2,947.9h10.1
					v-9.6h-10.1V947.9z M687.3,947.9h10.1v-9.6h-10.1V947.9z"/>
			</g>
		</g>
	</g>
</g>
</svg>
